<svg xmlns="http://www.w3.org/2000/svg" width="640" height="480" viewBox="0 0 462 455">
  <g fill="#FFF" fill-opacity="0.7" transform="translate(-89 -10)">
    <path d="M317.97515,285.879892 C318.505281,285.879892 319.035411,285.879892 319.671568,285.879892 C319.88362,285.879892 320.095672,285.879892 320.307724,285.879892 C320.625802,285.879892 321.049907,285.879892 321.367985,285.879892 C352.43363,285.349762 377.561814,274.429074 396.11638,253.541934 C436.936426,207.52661 430.150756,128.643197 429.408573,121.115345 C426.757921,64.6034376 400.039346,37.566784 377.985918,24.949679 C361.551874,15.5133568 342.361151,10.4241044 320.943881,10 L320.201698,10 C320.095672,10 319.88362,10 319.777594,10 L319.141437,10 C307.372541,10 284.258853,11.9084697 262.099399,24.5255747 C239.83392,37.1426796 212.69124,64.1793332 210.040588,121.115345 C209.298405,128.643197 202.512736,207.52661 243.332781,253.541934 C261.781321,274.429074 286.909505,285.349762 317.97515,285.879892 Z M238.349555,123.765997 C238.349555,123.447919 238.455581,123.129841 238.455581,122.917788 C241.954442,46.8970801 295.921723,38.733071 319.035411,38.733071 L319.459515,38.733071 C319.671568,38.733071 319.989646,38.733071 320.307724,38.733071 C348.934769,39.3692276 397.600745,51.0320977 400.887554,122.917788 C400.887554,123.235867 400.887554,123.553945 400.99358,123.765997 C401.099607,124.50818 408.521433,196.605923 374.805136,234.563264 C361.445848,249.618969 343.633464,257.040795 320.201698,257.252847 C319.989646,257.252847 319.88362,257.252847 319.671568,257.252847 L319.671568,257.252847 C319.459515,257.252847 319.353489,257.252847 319.141437,257.252847 C295.815697,257.040795 277.897287,249.618969 264.644026,234.563264 C231.033754,196.817975 238.243529,124.402154 238.349555,123.765997 Z"/>
    <path d="M550.9685,385.526571 C550.9685,385.446538 550.9685,385.366504 550.9685,385.28647 C550.9685,384.646201 550.856025,384.005932 550.856025,383.285629 C550.18117,367.438963 548.718986,330.383377 499.904512,318.538394 C499.567085,318.458361 499.117182,318.378327 498.779754,318.298293 C448.053193,309.094422 405.874788,288.285669 405.424885,288.045568 C398.563865,284.604121 389.115902,285.804626 384.279445,290.686679 C379.442988,295.568733 381.130124,302.29156 387.991145,305.733008 C389.903232,306.693412 434.668579,328.862737 490.681501,339.107046 C516.888349,345.74984 519.812719,365.678223 520.600049,383.925898 C520.600049,384.646201 520.600049,385.28647 520.712525,385.92674 C520.825001,393.129769 520.150146,404.254449 518.350534,410.657142 C500.129463,418.020239 428.707365,443.470944 320.055794,443.470944 C211.854127,443.470944 139.982125,417.940205 121.648578,410.577108 C119.848966,404.174415 119.061636,393.049736 119.286588,385.846706 C119.286588,385.206437 119.399063,384.566167 119.399063,383.845864 C120.186394,365.598189 123.110763,345.669807 149.317612,339.027012 C205.330533,328.782703 250.09588,306.533345 252.007968,305.652974 C258.868988,302.211527 260.556125,295.488699 255.719667,290.606645 C250.88321,285.724592 241.435248,284.524087 234.574227,287.965535 C234.124324,288.205636 192.170871,309.014388 141.219358,318.21826 C140.769455,318.298293 140.432028,318.378327 140.094601,318.458361 C91.2801269,330.383377 89.8179422,367.438963 89.1430878,383.205595 C89.1430878,383.925898 89.1430878,384.566167 89.030612,385.206437 C89.030612,385.28647 89.030612,385.366504 89.030612,385.446538 C88.9181363,389.608288 88.8056605,410.977277 94.7668751,421.701788 C95.8916325,423.782663 97.9161959,425.543403 100.615614,426.743908 C103.989886,428.344582 184.859948,465 320.16827,465 C455.476592,465 536.346654,428.264548 539.720926,426.743908 C542.307868,425.543403 544.444907,423.782663 545.569665,421.701788 C551.193452,411.05731 551.080976,389.688322 550.9685,385.526571 Z"/>
  </g>
</svg>
